{
  "accessors": [
    {
      "bufferView": 2,
      "componentType": 5126,
      "count": 27090,
      "max": [
        8.315600395202637,
        2.5762031078338623,
        13.946134567260742
      ],
      "min": [
        -6.284824371337891,
        -20.279863357543945,
        -13.44870662689209
      ],
      "type": "VEC3"
    },
    {
      "bufferView": 2,
      "byteOffset": 325080,
      "componentType": 5126,
      "count": 27090,
      "max": [
        0.9997314214706421,
        0.9999240636825562,
        0.9997699856758118
      ],
      "min": [
        -0.9999632239341736,
        -0.9999857544898987,
        -0.9996573328971863
      ],
      "type": "VEC3"
    },
    {
      "bufferView": 1,
      "componentType": 5126,
      "count": 27090,
      "max": [
        0.8345540165901184,
        1.0
      ],
      "min": [
        0.0,
        0.005155026912689209
      ],
      "type": "VEC2"
    },
    {
      "bufferView": 1,
      "byteOffset": 216720,
      "componentType": 5126,
      "count": 27090,
      "max": [
        0.0,
        1.0
      ],
      "min": [
        0.0,
        1.0
      ],
      "type": "VEC2"
    },
    {
      "bufferView": 1,
      "byteOffset": 433440,
      "componentType": 5126,
      "count": 27090,
      "max": [
        0.0,
        1.0
      ],
      "min": [
        0.0,
        1.0
      ],
      "type": "VEC2"
    },
    {
      "bufferView": 1,
      "byteOffset": 650160,
      "componentType": 5126,
      "count": 27090,
      "max": [
        0.8345540165901184,
        1.0
      ],
      "min": [
        0.0,
        0.005155026912689209
      ],
      "type": "VEC2"
    },
    {
      "bufferView": 1,
      "byteOffset": 866880,
      "componentType": 5126,
      "count": 27090,
      "max": [
        0.0,
        1.0
      ],
      "min": [
        0.0,
        1.0
      ],
      "type": "VEC2"
    },
    {
      "bufferView": 1,
      "byteOffset": 1083600,
      "componentType": 5126,
      "count": 27090,
      "max": [
        0.875,
        1.0
      ],
      "min": [
        0.0,
        0.25
      ],
      "type": "VEC2"
    },
    {
      "bufferView": 1,
      "byteOffset": 1300320,
      "componentType": 5126,
      "count": 27090,
      "max": [
        0.8345540165901184,
        1.0
      ],
      "min": [
        0.0,
        0.005155026912689209
      ],
      "type": "VEC2"
    },
    {
      "bufferView": 1,
      "byteOffset": 1517040,
      "componentType": 5126,
      "count": 27090,
      "max": [
        0.8345540165901184,
        1.0
      ],
      "min": [
        0.0,
        0.005155026912689209
      ],
      "type": "VEC2"
    },
    {
      "bufferView": 1,
      "byteOffset": 1733760,
      "componentType": 5126,
      "count": 27090,
      "max": [
        0.8345540165901184,
        1.0
      ],
      "min": [
        0.0,
        0.005155026912689209
      ],
      "type": "VEC2"
    },
    {
      "bufferView": 0,
      "componentType": 5125,
      "count": 129171,
      "type": "SCALAR"
    },
    {
      "bufferView": 2,
      "byteOffset": 650160,
      "componentType": 5126,
      "count": 63095,
      "max": [
        8.978109359741211,
        6.226111888885498,
        15.797693252563477
      ],
      "min": [
        -10.517955780029297,
        -20.087669372558594,
        -13.574105262756348
      ],
      "type": "VEC3"
    },
    {
      "bufferView": 2,
      "byteOffset": 1407300,
      "componentType": 5126,
      "count": 63095,
      "max": [
        0.9999992847442627,
        0.9999997019767761,
        1.0
      ],
      "min": [
        -0.9999998211860657,
        -0.9999983906745911,
        -0.9999978542327881
      ],
      "type": "VEC3"
    },
    {
      "bufferView": 3,
      "componentType": 5126,
      "count": 63095,
      "max": [
        1.0,
        1.0,
        1.0,
        1.0
      ],
      "min": [
        -1.0,
        -1.0,
        -1.0,
        1.0
      ],
      "type": "VEC4"
    },
    {
      "bufferView": 1,
      "byteOffset": 1950480,
      "componentType": 5126,
      "count": 63095,
      "max": [
        0.9970602989196777,
        0.998046875
      ],
      "min": [
        0.001953125,
        0.0020729899406433105
      ],
      "type": "VEC2"
    },
    {
      "bufferView": 1,
      "byteOffset": 2455240,
      "componentType": 5126,
      "count": 63095,
      "max": [
        0.9970602989196777,
        0.998046875
      ],
      "min": [
        0.001953125,
        0.0020729899406433105
      ],
      "type": "VEC2"
    },
    {
      "bufferView": 1,
      "byteOffset": 2960000,
      "componentType": 5126,
      "count": 63095,
      "max": [
        0.9970602989196777,
        0.998046875
      ],
      "min": [
        0.001953125,
        0.0020729899406433105
      ],
      "type": "VEC2"
    },
    {
      "bufferView": 1,
      "byteOffset": 3464760,
      "componentType": 5126,
      "count": 63095,
      "max": [
        0.0,
        1.0
      ],
      "min": [
        0.0,
        1.0
      ],
      "type": "VEC2"
    },
    {
      "bufferView": 1,
      "byteOffset": 3969520,
      "componentType": 5126,
      "count": 63095,
      "max": [
        0.0,
        1.0
      ],
      "min": [
        0.0,
        1.0
      ],
      "type": "VEC2"
    },
    {
      "bufferView": 1,
      "byteOffset": 4474280,
      "componentType": 5126,
      "count": 63095,
      "max": [
        0.9970602989196777,
        0.998046875
      ],
      "min": [
        0.001953125,
        0.0020729899406433105
      ],
      "type": "VEC2"
    },
    {
      "bufferView": 1,
      "byteOffset": 4979040,
      "componentType": 5126,
      "count": 63095,
      "max": [
        0.9970602989196777,
        0.998046875
      ],
      "min": [
        0.001953125,
        0.0020729899406433105
      ],
      "type": "VEC2"
    },
    {
      "bufferView": 0,
      "byteOffset": 516684,
      "componentType": 5125,
      "count": 291783,
      "type": "SCALAR"
    },
    {
      "bufferView": 2,
      "byteOffset": 2164440,
      "componentType": 5126,
      "count": 48761,
      "max": [
        8.938164710998535,
        6.201652526855469,
        15.045595169067383
      ],
      "min": [
        -10.48636531829834,
        -20.0452880859375,
        -13.574105262756348
      ],
      "type": "VEC3"
    },
    {
      "bufferView": 2,
      "byteOffset": 2749572,
      "componentType": 5126,
      "count": 48761,
      "max": [
        0.999996542930603,
        0.9999999403953552,
        0.9999997019767761
      ],
      "min": [
        -0.9999957084655762,
        -0.9999974966049194,
        -0.9999839663505554
      ],
      "type": "VEC3"
    },
    {
      "bufferView": 3,
      "byteOffset": 1009520,
      "componentType": 5126,
      "count": 48761,
      "max": [
        0.9999995231628418,
        1.0,
        0.9999874234199524,
        1.0
      ],
      "min": [
        -0.9998404383659363,
        -0.9990491271018982,
        -0.9999571442604065,
        -1.0
      ],
      "type": "VEC4"
    },
    {
      "bufferView": 1,
      "byteOffset": 5483800,
      "componentType": 5126,
      "count": 48761,
      "max": [
        0.9976330995559692,
        0.998046875
      ],
      "min": [
        0.001953125,
        0.001953125
      ],
      "type": "VEC2"
    },
    {
      "bufferView": 1,
      "byteOffset": 5873888,
      "componentType": 5126,
      "count": 48761,
      "max": [
        0.9976330995559692,
        0.998046875
      ],
      "min": [
        0.001953125,
        0.001953125
      ],
      "type": "VEC2"
    },
    {
      "bufferView": 1,
      "byteOffset": 6263976,
      "componentType": 5126,
      "count": 48761,
      "max": [
        0.9976330995559692,
        0.998046875
      ],
      "min": [
        0.001953125,
        0.001953125
      ],
      "type": "VEC2"
    },
    {
      "bufferView": 1,
      "byteOffset": 6654064,
      "componentType": 5126,
      "count": 48761,
      "max": [
        1081.682373046875,
        2059.61181640625
      ],
      "min": [
        -2057.049560546875,
        -2169.171630859375
      ],
      "type": "VEC2"
    },
    {
      "bufferView": 1,
      "byteOffset": 7044152,
      "componentType": 5126,
      "count": 48761,
      "max": [
        0.0,
        1.0
      ],
      "min": [
        0.0,
        1.0
      ],
      "type": "VEC2"
    },
    {
      "bufferView": 1,
      "byteOffset": 7434240,
      "componentType": 5126,
      "count": 48761,
      "max": [
        0.9976330995559692,
        0.998046875
      ],
      "min": [
        0.001953125,
        0.001953125
      ],
      "type": "VEC2"
    },
    {
      "bufferView": 1,
      "byteOffset": 7824328,
      "componentType": 5126,
      "count": 48761,
      "max": [
        0.9976330995559692,
        0.998046875
      ],
      "min": [
        0.001953125,
        0.001953125
      ],
      "type": "VEC2"
    },
    {
      "bufferView": 0,
      "byteOffset": 1683816,
      "componentType": 5125,
      "count": 136707,
      "type": "SCALAR"
    },
    {
      "bufferView": 2,
      "byteOffset": 3334704,
      "componentType": 5126,
      "count": 6056,
      "max": [
        7.441616058349609,
        -20.070053100585938,
        -12.20053482055664
      ],
      "min": [
        -5.12608528137207,
        -20.38401985168457,
        -12.883063316345215
      ],
      "type": "VEC3"
    },
    {
      "bufferView": 2,
      "byteOffset": 3407376,
      "componentType": 5126,
      "count": 6056,
      "max": [
        0.9998777508735657,
        0.9999881982803345,
        1.0
      ],
      "min": [
        -0.9999296069145203,
        -0.9999897480010986,
        -1.0
      ],
      "type": "VEC3"
    },
    {
      "bufferView": 1,
      "byteOffset": 8214416,
      "componentType": 5126,
      "count": 6056,
      "max": [
        1.0,
        1.0
      ],
      "min": [
        0.0,
        0.0
      ],
      "type": "VEC2"
    },
    {
      "bufferView": 1,
      "byteOffset": 8262864,
      "componentType": 5126,
      "count": 6056,
      "max": [
        0.0,
        1.0
      ],
      "min": [
        0.0,
        1.0
      ],
      "type": "VEC2"
    },
    {
      "bufferView": 1,
      "byteOffset": 8311312,
      "componentType": 5126,
      "count": 6056,
      "max": [
        0.0,
        1.0
      ],
      "min": [
        0.0,
        1.0
      ],
      "type": "VEC2"
    },
    {
      "bufferView": 1,
      "byteOffset": 8359760,
      "componentType": 5126,
      "count": 6056,
      "max": [
        0.0,
        1.0
      ],
      "min": [
        0.0,
        1.0
      ],
      "type": "VEC2"
    },
    {
      "bufferView": 1,
      "byteOffset": 8408208,
      "componentType": 5126,
      "count": 6056,
      "max": [
        0.0,
        1.0
      ],
      "min": [
        0.0,
        1.0
      ],
      "type": "VEC2"
    },
    {
      "bufferView": 0,
      "byteOffset": 2230644,
      "componentType": 5125,
      "count": 9084,
      "type": "SCALAR"
    }
  ],
  "asset": {
    "extras": {
      "author": "Mariano Oliva (https://sketchfab.com/asphaltango)",
      "license": "CC-BY-4.0 (http://creativecommons.org/licenses/by/4.0/)",
      "source": "https://sketchfab.com/3d-models/zeus-statue-216d3aff33b9439f87bd0e79c677f9eb",
      "title": "Zeus Statue"
    },
    "generator": "Sketchfab-12.67.0",
    "version": "2.0"
  },
  "bufferViews": [
    {
      "buffer": 0,
      "byteLength": 2266980,
      "name": "floatBufferViews",
      "target": 34963
    },
    {
      "buffer": 0,
      "byteLength": 8456656,
      "byteOffset": 2266980,
      "byteStride": 8,
      "name": "floatBufferViews",
      "target": 34962
    },
    {
      "buffer": 0,
      "byteLength": 3480048,
      "byteOffset": 10723636,
      "byteStride": 12,
      "name": "floatBufferViews",
      "target": 34962
    },
    {
      "buffer": 0,
      "byteLength": 1789696,
      "byteOffset": 14203684,
      "byteStride": 16,
      "name": "floatBufferViews",
      "target": 34962
    }
  ],
  "buffers": [
    {
      "byteLength": 15993380,
      "uri": "scene.bin"
    }
  ],
  "images": [
    {
      "uri": "textures/zeus-2_baseColor.jpeg"
    },
    {
      "uri": "textures/zeus-2_metallicRoughness.png"
    },
    {
      "uri": "textures/zeus-2_emissive.jpeg"
    },
    {
      "uri": "textures/default_baseColor.jpeg"
    },
    {
      "uri": "textures/default_metallicRoughness.png"
    },
    {
      "uri": "textures/default_normal.jpeg"
    }
  ],
  "materials": [
    {
      "doubleSided": true,
      "emissiveFactor": [
        0.4,
        0.4,
        0.4
      ],
      "emissiveTexture": {
        "index": 2
      },
      "name": "zeus-2",
      "occlusionTexture": {
        "index": 1
      },
      "pbrMetallicRoughness": {
        "baseColorTexture": {
          "index": 0
        },
        "metallicFactor": 0.1,
        "metallicRoughnessTexture": {
          "index": 1
        }
      }
    },
    {
      "name": "default",
      "normalTexture": {
        "index": 5,
        "texCoord": 2
      },
      "occlusionTexture": {
        "index": 4,
        "texCoord": 1
      },
      "pbrMetallicRoughness": {
        "baseColorTexture": {
          "index": 3
        },
        "metallicFactor": 0.1,
        "metallicRoughnessTexture": {
          "index": 4,
          "texCoord": 1
        },
        "roughnessFactor": 0.8
      }
    },
    {
      "doubleSided": true,
      "name": "Artificial_Marble_10",
      "normalTexture": {
        "index": 5,
        "texCoord": 2
      },
      "occlusionTexture": {
        "index": 4,
        "texCoord": 1
      },
      "pbrMetallicRoughness": {
        "baseColorTexture": {
          "index": 3
        },
        "metallicFactor": 0.1,
        "metallicRoughnessTexture": {
          "index": 4,
          "texCoord": 1
        },
        "roughnessFactor": 0.8
      }
    },
    {
      "doubleSided": true,
      "name": "Materiale.005",
      "pbrMetallicRoughness": {
        "baseColorFactor": [
          0.0282888,
          0.0282888,
          0.0282888,
          1.0
        ]
      }
    }
  ],
  "meshes": [
    {
      "name": "Object_0",
      "primitives": [
        {
          "attributes": {
            "NORMAL": 1,
            "POSITION": 0,
            "TEXCOORD_0": 2,
            "TEXCOORD_1": 3,
            "TEXCOORD_2": 4,
            "TEXCOORD_3": 5,
            "TEXCOORD_4": 6,
            "TEXCOORD_5": 7,
            "TEXCOORD_6": 8,
            "TEXCOORD_7": 9,
            "TEXCOORD_8": 10
          },
          "indices": 11,
          "material": 0,
          "mode": 4
        }
      ]
    },
    {
      "name": "Object_1",
      "primitives": [
        {
          "attributes": {
            "NORMAL": 13,
            "POSITION": 12,
            "TANGENT": 14,
            "TEXCOORD_0": 15,
            "TEXCOORD_1": 16,
            "TEXCOORD_2": 17,
            "TEXCOORD_3": 18,
            "TEXCOORD_4": 19,
            "TEXCOORD_5": 20,
            "TEXCOORD_6": 21
          },
          "indices": 22,
          "material": 1,
          "mode": 4
        }
      ]
    },
    {
      "name": "Object_2",
      "primitives": [
        {
          "attributes": {
            "NORMAL": 24,
            "POSITION": 23,
            "TANGENT": 25,
            "TEXCOORD_0": 26,
            "TEXCOORD_1": 27,
            "TEXCOORD_2": 28,
            "TEXCOORD_3": 29,
            "TEXCOORD_4": 30,
            "TEXCOORD_5": 31,
            "TEXCOORD_6": 32
          },
          "indices": 33,
          "material": 2,
          "mode": 4
        }
      ]
    },
    {
      "name": "Object_3",
      "primitives": [
        {
          "attributes": {
            "NORMAL": 35,
            "POSITION": 34,
            "TEXCOORD_0": 36,
            "TEXCOORD_1": 37,
            "TEXCOORD_2": 38,
            "TEXCOORD_3": 39,
            "TEXCOORD_4": 40
          },
          "indices": 41,
          "material": 3,
          "mode": 4
        }
      ]
    }
  ],
  "nodes": [
    {
      "children": [
        1
      ],
      "matrix": [
        1.0,
        0.0,
        0.0,
        0.0,
        0.0,
        2.220446049250313e-16,
        -1.0,
        0.0,
        0.0,
        1.0,
        2.220446049250313e-16,
        0.0,
        0.0,
        0.0,
        0.0,
        1.0
      ],
      "name": "Sketchfab_model"
    },
    {
      "children": [
        2
      ],
      "name": "root"
    },
    {
      "children": [
        3
      ],
      "matrix": [
        1.0,
        0.0,
        0.0,
        0.0,
        0.0,
        2.220446049250313e-16,
        1.0,
        0.0,
        0.0,
        -1.0,
        2.220446049250313e-16,
        0.0,
        0.0,
        0.0,
        0.0,
        1.0
      ],
      "name": "GLTF_SceneRootNode"
    },
    {
      "children": [
        4,
        5,
        6,
        7
      ],
      "matrix": [
        -1.0745888669733386,
        -0.026058666927981356,
        -0.007796106229610372,
        0.0,
        -0.007399712975020769,
        0.003960168667892656,
        1.0067144077194656,
        0.0,
        -0.024376182869363983,
        1.0064458523556303,
        -0.004138285947974554,
        0.0,
        0.0,
        15.51982593536377,
        0.0,
        1.0
      ],
      "name": "Mesh_0.003_0"
    },
    {
      "mesh": 0,
      "name": "Object_4"
    },
    {
      "mesh": 1,
      "name": "Object_5"
    },
    {
      "mesh": 2,
      "name": "Object_6"
    },
    {
      "mesh": 3,
      "name": "Object_7"
    }
  ],
  "samplers": [
    {
      "magFilter": 9729,
      "minFilter": 9987,
      "wrapS": 10497,
      "wrapT": 10497
    }
  ],
  "scene": 0,
  "scenes": [
    {
      "name": "Sketchfab_Scene",
      "nodes": [
        0
      ]
    }
  ],
  "textures": [
    {
      "sampler": 0,
      "source": 0
    },
    {
      "sampler": 0,
      "source": 1
    },
    {
      "sampler": 0,
      "source": 2
    },
    {
      "sampler": 0,
      "source": 3
    },
    {
      "sampler": 0,
      "source": 4
    },
    {
      "sampler": 0,
      "source": 5
    }
  ]
}
